<?xml version="1.0" encoding="UTF-8"?>
<svg id="Layer_1" data-name="Layer 1" xmlns="http://www.w3.org/2000/svg" xmlns:xlink="http://www.w3.org/1999/xlink" viewBox="0 0 841.89 595.28">
  <defs>
    <style>
      .cls-1 {
        fill: #474747;
      }

      .cls-1, .cls-2, .cls-3, .cls-4, .cls-5, .cls-6, .cls-7, .cls-8, .cls-9, .cls-10 {
        stroke-width: 0px;
      }

      .cls-11 {
        stroke: #3b3b3b;
        stroke-miterlimit: 10;
      }

      .cls-11, .cls-4 {
        fill: none;
      }

      .cls-2 {
        fill: #fde1c8;
      }

      .cls-3 {
        fill: #f7f7f7;
      }

      .cls-5 {
        fill: #f47414;
      }

      .cls-6 {
        fill: #dcdad4;
      }

      .cls-7 {
        fill: #3b3b3b;
      }

      .cls-8 {
        fill: #fffdf5;
        opacity: .69;
      }

      .cls-9 {
        fill: #e65f00;
      }

      .cls-12 {
        clip-path: url(#clippath);
      }

      .cls-10 {
        fill: #ff710d;
      }
    </style>
    <clipPath id="clippath">
      <rect class="cls-4" x="344.83" y="96.3" width="139.49" height="259.42"/>
    </clipPath>
  </defs>
  <g>
    <g>
      <path class="cls-10" d="M318.79,447.35v4.97h-11.27v21.2h-5.46v-48.99h19.45v4.97h-14v17.85h11.27Z"/>
      <path class="cls-10" d="M325.44,436.36c0-7.49,3.71-12.32,11.2-12.32s11.27,4.83,11.27,12.32v25.33c0,7.42-3.71,12.32-11.27,12.32s-11.2-4.9-11.2-12.32v-25.33ZM330.83,461.98c0,4.48,1.89,7.07,5.81,7.07s5.81-2.59,5.81-7.07v-25.89c0-4.41-1.82-7.07-5.81-7.07s-5.81,2.66-5.81,7.07v25.89Z"/>
      <path class="cls-10" d="M364.21,452.39l-8.19,21.13h-5.18l9.87-25.26-9.24-23.72h5.67l7.56,19.59,7.63-19.59h5.11l-9.17,23.72,9.8,25.26h-5.74l-8.12-21.13Z"/>
      <path class="cls-10" d="M391.15,455.96l-10.36-31.42h5.67l7.63,24.07,7.7-24.07h5.18l-10.43,31.42v17.56h-5.39v-17.56Z"/>
      <path class="cls-1" d="M417.43,473.03c-2.26-1.03-4.04-2.51-5.32-4.44-1.28-1.93-1.93-4.21-1.93-6.82,0-2.84.63-5.35,1.89-7.52,1.26-2.17,3.57-4.44,6.93-6.82-1.49-2-2.68-4.06-3.57-6.16-.89-2.1-1.33-4.06-1.33-5.88,0-3.36.99-6.09,2.97-8.19,1.98-2.1,4.98-3.15,8.99-3.15,3.26,0,5.94.93,8.01,2.8,2.08,1.87,3.11,4.29,3.11,7.28,0,2.71-.77,5.2-2.31,7.49-1.54,2.29-4.08,4.53-7.63,6.72l10.15,12.11.63.7c2.66-4.48,4.31-10.47,4.97-17.98l5.67.91c-1.12,9.05-3.41,16.17-6.86,21.34,1.59,1.59,2.88,2.65,3.88,3.18,1,.54,2.07.81,3.18.81.79,0,1.42-.09,1.89-.28l.91,4.62c-1.31.56-2.64.84-3.99.84-1.68,0-3.21-.33-4.58-.98-1.38-.65-3.04-1.96-5-3.92-3.5,3.27-7.86,4.9-13.09,4.9-2.8,0-5.33-.51-7.59-1.54ZM418.93,466.87c1.73,1.4,3.96,2.1,6.72,2.1,3.36,0,6.27-1.12,8.75-3.36l-.84-.98-11.13-13.16c-2.1,1.59-3.64,3.17-4.62,4.76-.98,1.59-1.47,3.22-1.47,4.9,0,2.43.86,4.34,2.59,5.74ZM421.07,439.2c.68,1.61,1.64,3.28,2.9,5,2.71-1.73,4.63-3.35,5.77-4.86,1.14-1.52,1.71-3.16,1.71-4.93,0-1.54-.49-2.78-1.47-3.71-.98-.93-2.43-1.4-4.34-1.4s-3.32.52-4.23,1.57-1.36,2.41-1.36,4.09c0,1.21.34,2.62,1.01,4.23Z"/>
      <path class="cls-1" d="M454.41,436.36c0-7.49,3.71-12.32,11.2-12.32s11.27,4.83,11.27,12.32v25.33c0,7.42-3.71,12.32-11.27,12.32s-11.2-4.9-11.2-12.32v-25.33ZM459.8,461.98c0,4.48,1.89,7.07,5.81,7.07s5.81-2.59,5.81-7.07v-25.89c0-4.41-1.82-7.07-5.81-7.07s-5.81,2.66-5.81,7.07v25.89Z"/>
      <path class="cls-1" d="M493.18,452.39l-8.19,21.13h-5.18l9.87-25.26-9.24-23.72h5.67l7.56,19.59,7.63-19.59h5.11l-9.17,23.72,9.8,25.26h-5.74l-8.12-21.13Z"/>
      <path class="cls-1" d="M520.12,455.96l-10.36-31.42h5.67l7.63,24.07,7.7-24.07h5.18l-10.43,31.42v17.56h-5.39v-17.56Z"/>
    </g>
    <g>
      <path class="cls-7" d="M337.85,493.74v-.98h3.92c-.19-.85-.62-1.55-1.3-2.09s-1.49-.81-2.43-.81c-1.35,0-2.41.51-3.18,1.54l-.9-.56c.37-.65.92-1.16,1.67-1.51.75-.36,1.53-.54,2.36-.54,1.42,0,2.6.45,3.53,1.36.93.91,1.4,2.02,1.4,3.33,0,1.24-.45,2.31-1.36,3.2-.9.9-2.06,1.34-3.48,1.34-.83,0-1.61-.17-2.36-.5-.75-.33-1.34-.83-1.76-1.5l.9-.59c.82,1.03,1.88,1.54,3.18,1.54.98,0,1.82-.29,2.52-.89.7-.59,1.11-1.38,1.22-2.36h-3.92Z"/>
      <path class="cls-7" d="M345.02,489.02h1.13v3.7l4.07-3.7h1.57l-4.46,4.02,4.81,4.76h-1.6l-4.04-4.06-.36.32v3.75h-1.13v-8.78Z"/>
      <path class="cls-7" d="M357.47,488.79c1.35,0,2.47.49,3.36,1.47.81.89,1.21,1.95,1.21,3.17s-.43,2.3-1.28,3.22c-.85.92-1.95,1.38-3.3,1.38s-2.45-.46-3.3-1.38c-.85-.92-1.28-1.99-1.28-3.22s.4-2.27,1.21-3.17c.89-.99,2.01-1.48,3.37-1.48ZM357.47,489.9c-.94,0-1.75.35-2.42,1.04s-1.01,1.53-1.01,2.52c0,.63.15,1.23.46,1.78.31.55.72.97,1.25,1.27.52.3,1.1.45,1.73.45s1.2-.15,1.73-.45c.52-.3.94-.72,1.25-1.27s.46-1.14.46-1.78c0-.99-.34-1.82-1.02-2.52s-1.48-1.04-2.42-1.04Z"/>
      <path class="cls-7" d="M371.58,497.8h-1.2l-2.94-6.4-2.92,6.4h-1.21l4.03-8.78h.2l4.04,8.78Z"/>
      <path class="cls-7" d="M377.47,488.79c1.35,0,2.48.49,3.37,1.47.81.89,1.21,1.95,1.21,3.17s-.43,2.3-1.28,3.22-1.95,1.38-3.3,1.38-2.45-.46-3.3-1.38c-.85-.92-1.28-1.99-1.28-3.22s.4-2.27,1.21-3.17c.89-.99,2.01-1.48,3.37-1.48ZM377.46,489.9c-.94,0-1.75.35-2.42,1.04s-1.01,1.53-1.01,2.52c0,.63.15,1.23.46,1.78.31.55.72.97,1.25,1.27.52.3,1.1.45,1.73.45s1.2-.15,1.73-.45c.52-.3.94-.72,1.25-1.27.31-.55.46-1.14.46-1.78,0-.99-.34-1.82-1.02-2.52-.68-.69-1.48-1.04-2.42-1.04Z"/>
      <path class="cls-7" d="M385.27,490.01v7.79h-1.13v-8.78h4.44v.99h-3.31Z"/>
      <path class="cls-7" d="M391.23,489.02v6.5l6.45-6.5h.09v8.78h-1.13v-6.44l-6.4,6.44h-.14v-8.78h1.13Z"/>
      <path class="cls-7" d="M404.22,493.84h-1.98c-.9,0-1.56-.23-1.99-.69-.43-.46-.65-1.11-.65-1.93v-2.2h1.11v1.59c0,1.02.14,1.66.44,1.9.29.24.77.37,1.43.37h1.65v-3.86h1.13v8.78h-1.13v-3.96Z"/>
      <path class="cls-7" d="M414.11,493.57h-5.11v4.23h-1.13v-8.78h1.13v3.49h5.11v-3.49h1.13v8.78h-1.13v-4.23Z"/>
      <path class="cls-7" d="M426.51,489.02v8.78h-1.11v-1.51c-.47.58-1.01,1.01-1.59,1.3-.59.29-1.23.44-1.93.44-1.24,0-2.31-.45-3.19-1.35-.88-.9-1.32-2-1.32-3.29s.44-2.35,1.33-3.25c.89-.9,1.96-1.35,3.21-1.35.72,0,1.37.15,1.96.46s1.1.77,1.54,1.38v-1.61h1.11ZM421.99,489.88c-.63,0-1.21.16-1.74.46-.53.31-.96.74-1.27,1.3s-.47,1.15-.47,1.77.16,1.21.48,1.77.74,1,1.28,1.32,1.11.47,1.72.47,1.2-.16,1.76-.47c.55-.31.98-.73,1.28-1.27s.45-1.13.45-1.8c0-1.02-.33-1.87-1-2.55-.67-.68-1.49-1.02-2.47-1.02Z"/>
      <path class="cls-7" d="M432.76,493.87h-.81l-2.51,3.93h-1.22l2.65-4.05c-.66-.08-1.19-.33-1.6-.75-.41-.42-.62-.94-.62-1.55,0-.78.24-1.38.71-1.8.47-.42,1.09-.64,1.85-.64h2.67v8.78h-1.13v-3.93ZM432.76,489.99h-.74c-.72,0-1.21.05-1.45.14-.25.09-.44.25-.59.47-.15.22-.22.52-.22.9s.09.66.28.89c.19.23.4.38.63.43.23.05.68.08,1.35.08h.74v-2.92Z"/>
      <path class="cls-7" d="M445.14,488.79c1.35,0,2.48.49,3.37,1.47.81.89,1.21,1.95,1.21,3.17s-.43,2.3-1.28,3.22-1.95,1.38-3.3,1.38-2.45-.46-3.3-1.38c-.85-.92-1.28-1.99-1.28-3.22s.4-2.27,1.21-3.17c.89-.99,2.01-1.48,3.37-1.48ZM445.14,489.9c-.94,0-1.75.35-2.42,1.04s-1.01,1.53-1.01,2.52c0,.63.15,1.23.46,1.78.31.55.72.97,1.25,1.27.52.3,1.1.45,1.73.45s1.2-.15,1.73-.45c.52-.3.94-.72,1.25-1.27.31-.55.46-1.14.46-1.78,0-.99-.34-1.82-1.02-2.52-.68-.69-1.48-1.04-2.42-1.04Z"/>
      <path class="cls-7" d="M451.89,496.84l3.39-7.82h.59l3.37,7.82h1.06v2.08h-1.09v-1.12h-7.27v1.17h-1.11v-2.13h1.06ZM455.55,490.76l-2.57,6.08h5.03l-2.47-6.08Z"/>
      <path class="cls-7" d="M469.21,494.89l.95.5c-.31.61-.67,1.11-1.08,1.49-.41.38-.87.66-1.38.86s-1.09.29-1.74.29c-1.43,0-2.55-.47-3.36-1.41s-1.21-2-1.21-3.19c0-1.11.34-2.11,1.03-2.98.87-1.11,2.03-1.66,3.48-1.66s2.69.57,3.59,1.7c.64.8.96,1.8.97,3h-7.91c.02,1.02.35,1.86.98,2.51.63.65,1.41.98,2.34.98.45,0,.88-.08,1.31-.23.42-.16.78-.36,1.08-.62.3-.26.62-.67.96-1.25ZM469.21,492.52c-.15-.6-.37-1.08-.66-1.45-.29-.36-.67-.65-1.14-.87-.47-.22-.97-.33-1.5-.33-.86,0-1.6.28-2.22.83-.45.4-.8,1.01-1.03,1.82h6.55Z"/>
      <path class="cls-7" d="M477.07,489.02h1.15v3.89l4.2-3.89h1.38l-4.15,3.92,4.47,4.87h-1.45l-3.8-4.25-.65.54v3.71h-1.15v-3.71l-.63-.54-3.78,4.25h-1.46l4.41-4.88-4.08-3.91h1.38l4.15,3.88v-3.88Z"/>
      <path class="cls-7" d="M485.35,496.84l3.39-7.82h.59l3.37,7.82h1.06v2.08h-1.09v-1.12h-7.27v1.17h-1.11v-2.13h1.06ZM489.02,490.76l-2.57,6.08h5.03l-2.47-6.08Z"/>
      <path class="cls-7" d="M504.04,489.02v8.78h-1.11v-1.51c-.47.58-1.01,1.01-1.59,1.3-.59.29-1.23.44-1.93.44-1.24,0-2.31-.45-3.19-1.35-.88-.9-1.32-2-1.32-3.29s.44-2.35,1.33-3.25c.89-.9,1.96-1.35,3.21-1.35.72,0,1.37.15,1.96.46s1.1.77,1.54,1.38v-1.61h1.11ZM499.52,489.88c-.63,0-1.21.16-1.74.46-.53.31-.96.74-1.27,1.3s-.47,1.15-.47,1.77.16,1.21.48,1.77.74,1,1.28,1.32,1.11.47,1.72.47,1.2-.16,1.76-.47c.55-.31.98-.73,1.28-1.27s.45-1.13.45-1.8c0-1.02-.33-1.87-1-2.55-.67-.68-1.49-1.02-2.47-1.02Z"/>
    </g>
  </g>
  <g>
    <path class="cls-9" d="M343.2,324.54s0,.01,0,.03c-.22,1.01-.47,2.13-.73,3.34.37-2.05.7-3.3.73-3.38Z"/>
    <g class="cls-12">
      <rect class="cls-3" x="344.99" y="97.85" width="138.99" height="258.69"/>
      <rect class="cls-4" x="344.48" y="97.08" width="140.33" height="259.15"/>
      <g>
        <g>
          <path class="cls-7" d="M438.22,130.61l3.63-16.43,2.84-12.86s-13.66,2.85-31.04,24.65h0s24.57,4.65,24.57,4.65Z"/>
          <path class="cls-5" d="M407.52,287.77s.04-.08.07-.13c-.02.09-.03.13-.03.14,0,0-.01,0-.04-.01Z"/>
          <path class="cls-1" d="M485.19,289.28s18.14-36.94-33.78-96.57c0,0-.58-.66-.57-.67,0,0,0,0,0,0,3.07,2.05,10.24,4.1,10.24,4.1,0,0-11.2-13.09-13.88-21.45-.38-1.2-2.71-9.33-.33-16.3,2.58-7.53,21.41-42.06,21.41-42.06l-.49.04c-10.63.94-20.76,4.83-29.46,11.03-.86.6-1.46.94-1.68.86-5.53-2.34-24.16-9.25-40.26-4.29-7.6,2.35-12.55,9.34-18.23,9.17-7.37-.23-15.5-1.56-16.77-.14-.02.02-.04.04-.04.06,1.95-.41,9.03,7.4,11.94,9.69,5.44,4.28,16.69,6.5,17.77,6.79,34.66,9.35,34.66,47.3,34.66,47.3,0,0-3.44-8.62-12.07-10.35,22.42,37.95,9.14,66.69,9.14,66.69l-5.69-14.94s.75,8.24-4.2,16.85c-1.03.59-2.05,1.41-3.04,2.5-4.49,4.93-9.39,8.59-14.57,11.17-12.01,6-22.81,1.92-24.15,5.19-2.83,6.86,40.67,49.92,83.78,36.37,4.87-1.53,22.43-5.93,30.27-21.04Z"/>
          <path class="cls-5" d="M407.6,287.64c-.03.05-.05.09-.07.13.03.01.04.01.04.01,0-.01.01-.05.03-.14Z"/>
          <path class="cls-1" d="M371.1,141.93c13.82,16.83,26.78,16.29,34.72,24.5,16.32,16.88-20.2,68.64-29.49,106.99,14.04.18,22.44-3.65,33.52-15.83.99-1.09,2.01-1.91,3.04-2.5,4.95-8.61,4.2-16.85,4.2-16.85l5.69,14.94s13.29-28.74-9.14-66.69c8.62,1.72,12.07,10.35,12.07,10.35,0,0,0-37.95-34.66-47.3-1.09-.29-12.33-2.51-17.77-6.79-2.91-2.29-10-10.1-11.94-9.69-.97,1.37,5.5,3.71,9.75,8.87Z"/>
          <path class="cls-6" d="M442.68,129.17c8.36-7.05,18.91-9.47,21.95-10.31.25-.07.45.19.33.42-1.99,3.51-12.19,21.6-15.22,28.37-.32.72-1.2.69-1.71.09-3.7-4.32-10.07-14.6-5.36-18.57Z"/>
          <path class="cls-5" d="M407.6,287.64c-.03.05-.05.09-.07.13.03.01.04.01.04.01,0-.01.01-.05.03-.14Z"/>
          <path class="cls-6" d="M371.29,273.95c48.8-1.07,45.81-35.7,45.81-35.7h0c4.01,4.31,5.69,14.94,5.69,14.94,0,0,13.29-28.74-9.14-66.69,8.62,1.72,12.07,10.35,12.07,10.35,0,0,0-37.95-34.66-47.3-1.09-.29-12.33-2.51-17.77-6.79-2.91-2.29-10-10.1-11.94-9.69-.21.04-.35.17-.43.4-9.06,25.55,29.2,17.01,33.58,51.51,4.55,35.95-17.19,79.02-24.43,88.56l-5.32.04c2.15.28,4.33.41,6.5.38.03,0,.05,0,.05,0Z"/>
          <path class="cls-5" d="M407.56,287.78s.01-.05.03-.14c-.03.05-.05.09-.07.13.03.01.04.01.04.01Z"/>
          <path class="cls-1" d="M372.68,133.33c-.37-.76-10.06-1.86-11.26-.69-1.03,1.02-2.08,6.18-1.77,6.29,2.31.83,5.97-1.75,6.49-3.28.39-1.14,7.14-1.08,6.54-2.32Z"/>
          <ellipse class="cls-1" cx="405.84" cy="202.69" rx="4.28" ry=".53" transform="translate(199.8 606.84) rotate(-89.53)"/>
          <ellipse class="cls-1" cx="398.23" cy="218.67" rx="4.28" ry=".53" transform="translate(176.27 615.07) rotate(-89.53)"/>
          <ellipse class="cls-1" cx="409.04" cy="230.52" rx="4.28" ry=".53" transform="translate(175.14 637.64) rotate(-89.53)"/>
          <path class="cls-8" d="M407.63,136.78c-.01,1.53,8.86,4.39,8.87,2.85s-4.53-5.6-6.07-5.61-2.79,1.22-2.8,2.76Z"/>
        </g>
        <path class="cls-7" d="M394.66,347.71c-3.09-.46-12.8-24.94-20.26-40.98-.36,5.87-3.74,13.9-17.63,19.24,0,0-.01,0-.03.01-.81.3-1.64.56-2.48.78-.52.13-1.57.29-2.1.23,0,0-13.63-2.16-15.11-2.41-33.48-5.76-47.24,10.43-47.24,10.43,0,0,11.99-36.32,36.49-56.58,0,0,.02-.02.02-.02,1.7-1.58,3.7-3.11,5.92-4.54,1.56-1.14,3.75-2.42,6.4-3.64,8.74-4,18.48-5.26,27.98-3.86,9.4,1.38,15.7,3.84,23.07,7.91.16.05.31.12.46.21,104.48,60.12,99.77.47,97.01-14.94,5.38,25.2,58.96,110.6-92.51,88.17Z"/>
      </g>
    </g>
    <rect class="cls-11" x="344.98" y="97.96" width="139.22" height="258.35"/>
    <g>
      <g>
        <path class="cls-9" d="M391.41,199.03l-3.63-16.43-2.84-12.86s13.66,2.85,31.04,24.65h0s-24.57,4.65-24.57,4.65Z"/>
        <path class="cls-5" d="M422.06,356.2s-.01-.05-.03-.14c.03.05.05.09.07.13-.03.01-.04.01-.04.01Z"/>
        <path class="cls-10" d="M344.44,357.7s-18.14-36.94,33.78-96.57c0,0,.58-.66.57-.67,0,0,0,0,0,0-3.07,2.05-10.24,4.1-10.24,4.1,0,0,11.2-13.09,13.88-21.45.38-1.2,2.71-9.33.33-16.3-2.58-7.53-21.41-42.06-21.41-42.06l.49.04c10.63.94,20.76,4.83,29.46,11.03.86.6,1.46.94,1.68.86,5.53-2.34,24.16-9.25,40.26-4.29,7.6,2.35,12.55,9.34,18.23,9.17,7.37-.23,15.5-1.56,16.77-.14.02.02.04.04.04.06-1.95-.41-9.03,7.4-11.94,9.69-5.44,4.28-16.69,6.5-17.77,6.79-34.66,9.35-34.66,47.3-34.66,47.3,0,0,3.44-8.62,12.07-10.35-22.42,37.95-9.14,66.69-9.14,66.69l5.69-14.94s-.75,8.24,4.2,16.85c1.03.59,2.05,1.41,3.04,2.5,4.49,4.93,9.39,8.59,14.57,11.17,12.01,6,22.81,1.92,24.15,5.19,2.83,6.86-40.67,49.92-83.78,36.37-4.87-1.53-22.43-5.93-30.27-21.04Z"/>
        <path class="cls-5" d="M422.03,356.06c.03.05.05.09.07.13-.03.01-.04.01-.04.01,0-.01-.01-.05-.03-.14Z"/>
        <path class="cls-5" d="M458.53,210.35c-13.82,16.83-26.78,16.29-34.72,24.5-16.32,16.88,25.4,69.17,34.69,107.52-14.04.18-27.65-4.18-38.73-16.36-.99-1.09-2.01-1.91-3.04-2.5-4.95-8.61-4.2-16.85-4.2-16.85l-5.69,14.94s-13.29-28.74,9.14-66.69c-8.62,1.72-12.07,10.35-12.07,10.35,0,0,0-37.95,34.66-47.3,1.09-.29,12.33-2.51,17.77-6.79,2.91-2.29,10-10.1,11.94-9.69.97,1.37-5.5,3.71-9.75,8.87Z"/>
        <path class="cls-2" d="M386.95,197.59c-8.36-7.05-18.91-9.47-21.95-10.31-.25-.07-.45.19-.33.42,1.99,3.51,12.19,21.6,15.22,28.37.32.72,1.2.69,1.71.09,3.7-4.32,10.07-14.6,5.36-18.57Z"/>
        <path class="cls-5" d="M422.03,356.06c.03.05.05.09.07.13-.03.01-.04.01-.04.01,0-.01-.01-.05-.03-.14Z"/>
        <path class="cls-2" d="M458.33,342.37c-48.8-1.07-45.81-35.7-45.81-35.7h0c-4.01,4.31-5.69,14.94-5.69,14.94,0,0-13.29-28.74,9.14-66.69-8.62,1.72-12.07,10.35-12.07,10.35,0,0,0-37.95,34.66-47.3,1.09-.29,12.33-2.51,17.77-6.79,2.91-2.29,10-10.1,11.94-9.69.21.04.35.17.43.4,9.06,25.55-29.2,17.01-33.58,51.51-4.55,35.95,24.03,78.86,31.27,88.4l-1.51.2c-2.15.28-4.33.41-6.5.38-.03,0-.05,0-.05,0Z"/>
        <path class="cls-5" d="M422.06,356.2s-.01-.05-.03-.14c.03.05.05.09.07.13-.03.01-.04.01-.04.01Z"/>
        <path class="cls-10" d="M456.95,201.75c.37-.76,10.06-1.86,11.26-.69,1.03,1.02,2.08,6.18,1.77,6.29-2.31.83-5.97-1.75-6.49-3.28-.39-1.14-7.14-1.08-6.54-2.32Z"/>
        <ellipse class="cls-5" cx="423.78" cy="271.11" rx=".53" ry="4.28" transform="translate(-2.23 3.51) rotate(-.47)"/>
        <ellipse class="cls-5" cx="431.4" cy="287.09" rx=".53" ry="4.28" transform="translate(-2.36 3.58) rotate(-.47)"/>
        <ellipse class="cls-5" cx="420.59" cy="298.94" rx=".53" ry="4.28" transform="translate(-2.46 3.49) rotate(-.47)"/>
        <path class="cls-8" d="M421.99,205.2c.01,1.53-8.86,4.39-8.87,2.85-.01-1.53,4.53-5.6,6.07-5.61s2.79,1.22,2.8,2.76Z"/>
      </g>
      <g>
        <path class="cls-9" d="M463.42,361.47c-4.86.84,19.59,33.11,15.03,33.79-151.46,22.43-141.37-42.1-135.99-67.3-2.76,15.41-7.47,75.06,97.01,14.94.15-.09.3-.16.46-.21,9.91-5.48,20.9-9.49,28.7-9.49,4.83,0,9.37.57,13.28,1.76"/>
        <path class="cls-2" d="M539.82,403.42s-13.76-16.19-47.24-10.43c-1.47.25-15.11,2.41-15.11,2.41-.53.06-1.58-.1-2.1-.23-.84-.21-1.67-.47-2.48-.78-.02,0-.03-.01-.03-.01-24.19-9.3-16.5-26.75-16.5-26.75-1.47.9-2.83,2.65-3.83,4.18-1,1.53-1.63,2.83-1.63,2.83,0,0-1.42-16.92,16.68-32.09-4.62-.68-7.91,3.07-7.91,3.07.12-.74,1.89-9.88,9.8-11.74,8.82-2.06,22.91,4.73,27.92,8.39,2.22,1.43,4.22,2.96,5.92,4.54,0,0,.01.01.02.02,24.5,20.26,36.49,56.58,36.49,56.58Z"/>
      </g>
    </g>
  </g>
</svg>