<?xml version="1.0" encoding="UTF-8"?>
<svg id="Layer_1" data-name="Layer 1" xmlns="http://www.w3.org/2000/svg" viewBox="0 0 841.89 595.28">
  <defs>
    <style>
      .cls-1 {
        fill: #474747;
      }

      .cls-1, .cls-2, .cls-3 {
        stroke-width: 0px;
      }

      .cls-2 {
        fill: #3b3b3b;
      }

      .cls-3 {
        fill: #ff710d;
      }
    </style>
  </defs>
  <g>
    <path class="cls-3" d="M320.74,283.48v4.97h-11.27v21.2h-5.46v-48.99h19.45v4.97h-14v17.85h11.27Z"/>
    <path class="cls-3" d="M327.38,272.49c0-7.49,3.71-12.32,11.2-12.32s11.27,4.83,11.27,12.32v25.33c0,7.42-3.71,12.32-11.27,12.32s-11.2-4.9-11.2-12.32v-25.33ZM332.77,298.11c0,4.48,1.89,7.07,5.81,7.07s5.81-2.59,5.81-7.07v-25.89c0-4.41-1.82-7.07-5.81-7.07s-5.81,2.66-5.81,7.07v25.89Z"/>
    <path class="cls-3" d="M366.15,288.52l-8.19,21.13h-5.18l9.87-25.26-9.24-23.72h5.67l7.56,19.59,7.63-19.59h5.11l-9.17,23.72,9.8,25.26h-5.74l-8.12-21.13Z"/>
    <path class="cls-3" d="M393.09,292.09l-10.36-31.42h5.67l7.63,24.07,7.7-24.07h5.18l-10.43,31.42v17.56h-5.39v-17.56Z"/>
    <path class="cls-1" d="M419.37,309.16c-2.26-1.03-4.04-2.51-5.32-4.44-1.28-1.93-1.93-4.21-1.93-6.82,0-2.84.63-5.35,1.89-7.52,1.26-2.17,3.57-4.44,6.93-6.82-1.49-2-2.68-4.06-3.57-6.16-.89-2.1-1.33-4.06-1.33-5.88,0-3.36.99-6.09,2.97-8.19,1.98-2.1,4.98-3.15,8.99-3.15,3.26,0,5.94.93,8.01,2.8,2.08,1.87,3.11,4.29,3.11,7.28,0,2.71-.77,5.2-2.31,7.49-1.54,2.29-4.08,4.53-7.63,6.72l10.15,12.11.63.7c2.66-4.48,4.31-10.47,4.97-17.98l5.67.91c-1.12,9.05-3.41,16.17-6.86,21.34,1.59,1.59,2.88,2.65,3.88,3.18,1,.54,2.07.81,3.18.81.79,0,1.42-.09,1.89-.28l.91,4.62c-1.31.56-2.64.84-3.99.84-1.68,0-3.21-.33-4.58-.98-1.38-.65-3.04-1.96-5-3.92-3.5,3.27-7.86,4.9-13.09,4.9-2.8,0-5.33-.51-7.59-1.54ZM420.87,303c1.73,1.4,3.96,2.1,6.72,2.1,3.36,0,6.27-1.12,8.75-3.36l-.84-.98-11.13-13.16c-2.1,1.59-3.64,3.17-4.62,4.76-.98,1.59-1.47,3.22-1.47,4.9,0,2.43.86,4.34,2.59,5.74ZM423.01,275.33c.68,1.61,1.64,3.28,2.9,5,2.71-1.73,4.63-3.35,5.77-4.86,1.14-1.52,1.71-3.16,1.71-4.93,0-1.54-.49-2.78-1.47-3.71-.98-.93-2.43-1.4-4.34-1.4s-3.32.52-4.23,1.57-1.36,2.41-1.36,4.09c0,1.21.34,2.62,1.01,4.23Z"/>
    <path class="cls-1" d="M456.35,272.49c0-7.49,3.71-12.32,11.2-12.32s11.27,4.83,11.27,12.32v25.33c0,7.42-3.71,12.32-11.27,12.32s-11.2-4.9-11.2-12.32v-25.33ZM461.74,298.11c0,4.48,1.89,7.07,5.81,7.07s5.81-2.59,5.81-7.07v-25.89c0-4.41-1.82-7.07-5.81-7.07s-5.81,2.66-5.81,7.07v25.89Z"/>
    <path class="cls-1" d="M495.12,288.52l-8.19,21.13h-5.18l9.87-25.26-9.24-23.72h5.67l7.56,19.59,7.63-19.59h5.11l-9.17,23.72,9.8,25.26h-5.74l-8.12-21.13Z"/>
    <path class="cls-1" d="M522.06,292.09l-10.36-31.42h5.67l7.63,24.07,7.7-24.07h5.18l-10.43,31.42v17.56h-5.39v-17.56Z"/>
  </g>
  <g>
    <path class="cls-2" d="M339.8,329.87v-.98h3.92c-.19-.85-.62-1.55-1.3-2.09s-1.49-.81-2.43-.81c-1.35,0-2.41.51-3.18,1.54l-.9-.56c.37-.65.92-1.16,1.67-1.51.75-.36,1.53-.54,2.36-.54,1.42,0,2.6.45,3.53,1.36.93.91,1.4,2.02,1.4,3.33,0,1.24-.45,2.31-1.36,3.2-.9.9-2.06,1.34-3.48,1.34-.83,0-1.61-.17-2.36-.5-.75-.33-1.34-.83-1.76-1.5l.9-.59c.82,1.03,1.88,1.54,3.18,1.54.98,0,1.82-.29,2.52-.89.7-.59,1.11-1.38,1.22-2.36h-3.92Z"/>
    <path class="cls-2" d="M346.96,325.14h1.13v3.7l4.07-3.7h1.57l-4.46,4.02,4.81,4.76h-1.6l-4.04-4.06-.36.32v3.75h-1.13v-8.78Z"/>
    <path class="cls-2" d="M359.42,324.92c1.35,0,2.47.49,3.36,1.47.81.89,1.21,1.95,1.21,3.17s-.43,2.3-1.28,3.22c-.85.92-1.95,1.38-3.3,1.38s-2.45-.46-3.3-1.38c-.85-.92-1.28-1.99-1.28-3.22s.4-2.27,1.21-3.17c.89-.99,2.01-1.48,3.37-1.48ZM359.41,326.02c-.94,0-1.75.35-2.42,1.04s-1.01,1.53-1.01,2.52c0,.63.15,1.23.46,1.78.31.55.72.97,1.25,1.27.52.3,1.1.45,1.73.45s1.2-.15,1.73-.45c.52-.3.94-.72,1.25-1.27s.46-1.14.46-1.78c0-.99-.34-1.82-1.02-2.52s-1.48-1.04-2.42-1.04Z"/>
    <path class="cls-2" d="M373.52,333.93h-1.2l-2.94-6.4-2.92,6.4h-1.21l4.03-8.78h.2l4.04,8.78Z"/>
    <path class="cls-2" d="M379.41,324.92c1.35,0,2.48.49,3.37,1.47.81.89,1.21,1.95,1.21,3.17s-.43,2.3-1.28,3.22-1.95,1.38-3.3,1.38-2.45-.46-3.3-1.38c-.85-.92-1.28-1.99-1.28-3.22s.4-2.27,1.21-3.17c.89-.99,2.01-1.48,3.37-1.48ZM379.4,326.02c-.94,0-1.75.35-2.42,1.04s-1.01,1.53-1.01,2.52c0,.63.15,1.23.46,1.78.31.55.72.97,1.25,1.27.52.3,1.1.45,1.73.45s1.2-.15,1.73-.45c.52-.3.94-.72,1.25-1.27.31-.55.46-1.14.46-1.78,0-.99-.34-1.82-1.02-2.52-.68-.69-1.48-1.04-2.42-1.04Z"/>
    <path class="cls-2" d="M387.21,326.14v7.79h-1.13v-8.78h4.44v.99h-3.31Z"/>
    <path class="cls-2" d="M393.18,325.14v6.5l6.45-6.5h.09v8.78h-1.13v-6.44l-6.4,6.44h-.14v-8.78h1.13Z"/>
    <path class="cls-2" d="M406.16,329.96h-1.98c-.9,0-1.56-.23-1.99-.69-.43-.46-.65-1.11-.65-1.93v-2.2h1.11v1.59c0,1.02.14,1.66.44,1.9.29.24.77.37,1.43.37h1.65v-3.86h1.13v8.78h-1.13v-3.96Z"/>
    <path class="cls-2" d="M416.05,329.7h-5.11v4.23h-1.13v-8.78h1.13v3.49h5.11v-3.49h1.13v8.78h-1.13v-4.23Z"/>
    <path class="cls-2" d="M428.45,325.14v8.78h-1.11v-1.51c-.47.58-1.01,1.01-1.59,1.3-.59.29-1.23.44-1.93.44-1.24,0-2.31-.45-3.19-1.35-.88-.9-1.32-2-1.32-3.29s.44-2.35,1.33-3.25c.89-.9,1.96-1.35,3.21-1.35.72,0,1.37.15,1.96.46s1.1.77,1.54,1.38v-1.61h1.11ZM423.93,326.01c-.63,0-1.21.16-1.74.46-.53.31-.96.74-1.27,1.3s-.47,1.15-.47,1.77.16,1.21.48,1.77.74,1,1.28,1.32,1.11.47,1.72.47,1.2-.16,1.76-.47c.55-.31.98-.73,1.28-1.27s.45-1.13.45-1.8c0-1.02-.33-1.87-1-2.55-.67-.68-1.49-1.02-2.47-1.02Z"/>
    <path class="cls-2" d="M434.7,330h-.81l-2.51,3.93h-1.22l2.65-4.05c-.66-.08-1.19-.33-1.6-.75-.41-.42-.62-.94-.62-1.55,0-.78.24-1.38.71-1.8.47-.42,1.09-.64,1.85-.64h2.67v8.78h-1.13v-3.93ZM434.7,326.12h-.74c-.72,0-1.21.05-1.45.14-.25.09-.44.25-.59.47-.15.22-.22.52-.22.9s.09.66.28.89c.19.23.4.38.63.43.23.05.68.08,1.35.08h.74v-2.92Z"/>
    <path class="cls-2" d="M447.09,324.92c1.35,0,2.48.49,3.37,1.47.81.89,1.21,1.95,1.21,3.17s-.43,2.3-1.28,3.22-1.95,1.38-3.3,1.38-2.45-.46-3.3-1.38c-.85-.92-1.28-1.99-1.28-3.22s.4-2.27,1.21-3.17c.89-.99,2.01-1.48,3.37-1.48ZM447.08,326.02c-.94,0-1.75.35-2.42,1.04s-1.01,1.53-1.01,2.52c0,.63.15,1.23.46,1.78.31.55.72.97,1.25,1.27.52.3,1.1.45,1.73.45s1.2-.15,1.73-.45c.52-.3.94-.72,1.25-1.27.31-.55.46-1.14.46-1.78,0-.99-.34-1.82-1.02-2.52-.68-.69-1.48-1.04-2.42-1.04Z"/>
    <path class="cls-2" d="M453.83,332.97l3.39-7.82h.59l3.37,7.82h1.06v2.08h-1.09v-1.12h-7.27v1.17h-1.11v-2.13h1.06ZM457.49,326.89l-2.57,6.08h5.03l-2.47-6.08Z"/>
    <path class="cls-2" d="M471.16,331.01l.95.5c-.31.61-.67,1.11-1.08,1.49-.41.38-.87.66-1.38.86s-1.09.29-1.74.29c-1.43,0-2.55-.47-3.36-1.41s-1.21-2-1.21-3.19c0-1.11.34-2.11,1.03-2.98.87-1.11,2.03-1.66,3.48-1.66s2.69.57,3.59,1.7c.64.8.96,1.8.97,3h-7.91c.02,1.02.35,1.86.98,2.51.63.65,1.41.98,2.34.98.45,0,.88-.08,1.31-.23.42-.16.78-.36,1.08-.62.3-.26.62-.67.96-1.25ZM471.16,328.65c-.15-.6-.37-1.08-.66-1.45-.29-.36-.67-.65-1.14-.87-.47-.22-.97-.33-1.5-.33-.86,0-1.6.28-2.22.83-.45.4-.8,1.01-1.03,1.82h6.55Z"/>
    <path class="cls-2" d="M479.01,325.14h1.15v3.89l4.2-3.89h1.38l-4.15,3.92,4.47,4.87h-1.45l-3.8-4.25-.65.54v3.71h-1.15v-3.71l-.63-.54-3.78,4.25h-1.46l4.41-4.88-4.08-3.91h1.38l4.15,3.88v-3.88Z"/>
    <path class="cls-2" d="M487.29,332.97l3.39-7.82h.59l3.37,7.82h1.06v2.08h-1.09v-1.12h-7.27v1.17h-1.11v-2.13h1.06ZM490.96,326.89l-2.57,6.08h5.03l-2.47-6.08Z"/>
    <path class="cls-2" d="M505.98,325.14v8.78h-1.11v-1.51c-.47.58-1.01,1.01-1.59,1.3-.59.29-1.23.44-1.93.44-1.24,0-2.31-.45-3.19-1.35-.88-.9-1.32-2-1.32-3.29s.44-2.35,1.33-3.25c.89-.9,1.96-1.35,3.21-1.35.72,0,1.37.15,1.96.46s1.1.77,1.54,1.38v-1.61h1.11ZM501.46,326.01c-.63,0-1.21.16-1.74.46-.53.31-.96.74-1.27,1.3s-.47,1.15-.47,1.77.16,1.21.48,1.77.74,1,1.28,1.32,1.11.47,1.72.47,1.2-.16,1.76-.47c.55-.31.98-.73,1.28-1.27s.45-1.13.45-1.8c0-1.02-.33-1.87-1-2.55-.67-.68-1.49-1.02-2.47-1.02Z"/>
  </g>
</svg>