<?xml version="1.0" encoding="UTF-8"?>
<svg id="Layer_1" data-name="Layer 1" xmlns="http://www.w3.org/2000/svg" xmlns:xlink="http://www.w3.org/1999/xlink" viewBox="0 0 841.89 595.28">
  <defs>
    <style>
      .cls-1 {
        fill: #474747;
      }

      .cls-1, .cls-2, .cls-3, .cls-4, .cls-5, .cls-6, .cls-7, .cls-8, .cls-9, .cls-10 {
        stroke-width: 0px;
      }

      .cls-11 {
        stroke: #3b3b3b;
        stroke-miterlimit: 10;
      }

      .cls-11, .cls-4 {
        fill: none;
      }

      .cls-2 {
        fill: #fde1c8;
      }

      .cls-3 {
        fill: #f7f7f7;
      }

      .cls-5 {
        fill: #f47414;
      }

      .cls-6 {
        fill: #dcdad4;
      }

      .cls-7 {
        fill: #3b3b3b;
      }

      .cls-8 {
        fill: #fffdf5;
        opacity: .69;
      }

      .cls-9 {
        fill: #e65f00;
      }

      .cls-12 {
        clip-path: url(#clippath);
      }

      .cls-10 {
        fill: #ff710d;
      }
    </style>
    <clipPath id="clippath">
      <rect class="cls-4" x="344.74" y="96.06" width="139.66" height="259.74"/>
    </clipPath>
  </defs>
  <g>
    <g>
      <path class="cls-10" d="M318.67,447.53v4.97h-11.28v21.23h-5.46v-49.05h19.48v4.97h-14.01v17.87h11.28Z"/>
      <path class="cls-10" d="M325.32,436.53c0-7.5,3.71-12.33,11.21-12.33s11.28,4.83,11.28,12.33v25.36c0,7.43-3.71,12.33-11.28,12.33s-11.21-4.9-11.21-12.33v-25.36ZM330.72,462.18c0,4.48,1.89,7.08,5.82,7.08s5.81-2.59,5.81-7.08v-25.92c0-4.41-1.82-7.08-5.81-7.08s-5.82,2.66-5.82,7.08v25.92Z"/>
      <path class="cls-10" d="M364.14,452.58l-8.2,21.16h-5.18l9.88-25.29-9.25-23.75h5.67l7.57,19.62,7.64-19.62h5.11l-9.18,23.75,9.81,25.29h-5.75l-8.13-21.16Z"/>
      <path class="cls-10" d="M391.12,456.15l-10.37-31.46h5.67l7.64,24.1,7.71-24.1h5.19l-10.44,31.46v17.59h-5.39v-17.59Z"/>
      <path class="cls-3" d="M417.42,473.25c-2.27-1.03-4.04-2.51-5.32-4.45-1.29-1.94-1.93-4.21-1.93-6.83,0-2.85.63-5.36,1.89-7.53,1.26-2.17,3.57-4.45,6.94-6.83-1.5-2.01-2.69-4.06-3.57-6.17-.89-2.1-1.33-4.06-1.33-5.89,0-3.36.99-6.1,2.98-8.2,1.98-2.1,4.99-3.15,9-3.15,3.27,0,5.94.93,8.02,2.8,2.08,1.87,3.12,4.3,3.12,7.29,0,2.71-.77,5.21-2.31,7.5-1.54,2.29-4.09,4.53-7.64,6.73l10.16,12.12.63.7c2.66-4.48,4.32-10.49,4.97-18.01l5.67.91c-1.12,9.06-3.41,16.19-6.87,21.37,1.59,1.59,2.88,2.65,3.89,3.19,1,.54,2.07.81,3.19.81.79,0,1.42-.09,1.89-.28l.91,4.62c-1.31.56-2.64.84-3.99.84-1.68,0-3.21-.33-4.59-.98-1.38-.65-3.05-1.96-5.01-3.92-3.5,3.27-7.87,4.9-13.1,4.9-2.8,0-5.34-.51-7.6-1.54ZM418.93,467.08c1.73,1.4,3.97,2.1,6.73,2.1,3.36,0,6.28-1.12,8.76-3.36l-.84-.98-11.14-13.17c-2.1,1.59-3.64,3.18-4.62,4.76-.98,1.59-1.47,3.22-1.47,4.9,0,2.43.86,4.34,2.59,5.75ZM421.07,439.37c.68,1.61,1.65,3.28,2.91,5.01,2.71-1.73,4.64-3.35,5.78-4.87,1.14-1.52,1.72-3.16,1.72-4.94,0-1.54-.49-2.78-1.47-3.71-.98-.93-2.43-1.4-4.34-1.4s-3.33.53-4.24,1.58-1.37,2.42-1.37,4.1c0,1.22.34,2.63,1.02,4.24Z"/>
      <path class="cls-3" d="M454.45,436.53c0-7.5,3.71-12.33,11.21-12.33s11.28,4.83,11.28,12.33v25.36c0,7.43-3.71,12.33-11.28,12.33s-11.21-4.9-11.21-12.33v-25.36ZM459.85,462.18c0,4.48,1.89,7.08,5.81,7.08s5.82-2.59,5.82-7.08v-25.92c0-4.41-1.82-7.08-5.82-7.08s-5.81,2.66-5.81,7.08v25.92Z"/>
      <path class="cls-3" d="M493.27,452.58l-8.2,21.16h-5.19l9.88-25.29-9.25-23.75h5.68l7.57,19.62,7.64-19.62h5.11l-9.18,23.75,9.81,25.29h-5.75l-8.13-21.16Z"/>
      <path class="cls-3" d="M520.24,456.15l-10.37-31.46h5.68l7.64,24.1,7.71-24.1h5.18l-10.44,31.46v17.59h-5.4v-17.59Z"/>
    </g>
    <g>
      <path class="cls-3" d="M337.75,493.98v-.98h3.93c-.19-.85-.62-1.55-1.3-2.1s-1.49-.81-2.43-.81c-1.35,0-2.41.51-3.19,1.54l-.9-.56c.37-.65.92-1.16,1.67-1.52.75-.36,1.54-.54,2.36-.54,1.43,0,2.6.46,3.54,1.37.93.91,1.4,2.02,1.4,3.33,0,1.24-.45,2.31-1.36,3.21-.9.9-2.07,1.35-3.49,1.35-.83,0-1.61-.17-2.37-.5-.75-.33-1.34-.83-1.76-1.5l.9-.59c.82,1.03,1.88,1.54,3.18,1.54.98,0,1.82-.3,2.52-.89.7-.59,1.11-1.38,1.22-2.36h-3.93Z"/>
      <path class="cls-3" d="M344.92,489.25h1.13v3.71l4.08-3.71h1.58l-4.46,4.03,4.81,4.77h-1.6l-4.05-4.07-.36.32v3.75h-1.13v-8.8Z"/>
      <path class="cls-3" d="M357.4,489.02c1.35,0,2.48.49,3.37,1.47.81.89,1.21,1.95,1.21,3.18s-.43,2.3-1.28,3.22c-.86.92-1.96,1.38-3.3,1.38s-2.45-.46-3.31-1.38c-.86-.92-1.28-1.99-1.28-3.22s.4-2.27,1.21-3.17c.89-.99,2.02-1.48,3.38-1.48ZM357.39,490.13c-.94,0-1.75.35-2.43,1.04s-1.01,1.54-1.01,2.52c0,.64.15,1.23.46,1.78.31.55.72.97,1.25,1.27.52.3,1.1.45,1.73.45s1.2-.15,1.73-.45c.52-.3.94-.72,1.25-1.27s.46-1.14.46-1.78c0-.99-.34-1.83-1.02-2.52s-1.49-1.04-2.42-1.04Z"/>
      <path class="cls-3" d="M371.52,498.05h-1.2l-2.94-6.41-2.92,6.41h-1.21l4.03-8.8h.2l4.05,8.8Z"/>
      <path class="cls-3" d="M377.41,489.02c1.36,0,2.48.49,3.37,1.47.81.89,1.21,1.95,1.21,3.18s-.43,2.3-1.28,3.22-1.96,1.38-3.3,1.38-2.45-.46-3.31-1.38c-.86-.92-1.28-1.99-1.28-3.22s.4-2.27,1.22-3.17c.89-.99,2.02-1.48,3.38-1.48ZM377.41,490.13c-.94,0-1.75.35-2.43,1.04s-1.01,1.54-1.01,2.52c0,.64.15,1.23.46,1.78.31.55.72.97,1.25,1.27.52.3,1.1.45,1.73.45s1.2-.15,1.73-.45c.52-.3.94-.72,1.25-1.27.31-.55.46-1.14.46-1.78,0-.99-.34-1.83-1.02-2.52-.68-.7-1.49-1.04-2.42-1.04Z"/>
      <path class="cls-3" d="M385.22,490.24v7.8h-1.13v-8.8h4.45v.99h-3.31Z"/>
      <path class="cls-3" d="M391.2,489.25v6.51l6.46-6.51h.09v8.8h-1.13v-6.45l-6.41,6.45h-.14v-8.8h1.13Z"/>
      <path class="cls-3" d="M404.2,494.08h-1.99c-.9,0-1.56-.23-2-.7-.43-.46-.65-1.11-.65-1.93v-2.2h1.11v1.59c0,1.02.14,1.66.44,1.9.29.24.77.37,1.44.37h1.65v-3.86h1.13v8.8h-1.13v-3.97Z"/>
      <path class="cls-3" d="M414.1,493.81h-5.12v4.24h-1.13v-8.8h1.13v3.49h5.12v-3.49h1.13v8.8h-1.13v-4.24Z"/>
      <path class="cls-3" d="M426.52,489.25v8.8h-1.12v-1.51c-.47.58-1.01,1.01-1.6,1.3-.59.29-1.24.44-1.94.44-1.25,0-2.31-.45-3.19-1.35-.88-.9-1.32-2-1.32-3.29s.44-2.35,1.33-3.25c.89-.9,1.96-1.35,3.21-1.35.72,0,1.38.15,1.96.46s1.1.77,1.54,1.38v-1.62h1.12ZM421.99,490.11c-.63,0-1.21.16-1.74.46-.53.31-.96.74-1.27,1.3s-.47,1.15-.47,1.78.16,1.21.48,1.78.74,1.01,1.28,1.32,1.11.47,1.72.47,1.21-.16,1.76-.47c.55-.31.98-.73,1.28-1.27s.45-1.13.45-1.8c0-1.02-.33-1.87-1.01-2.55-.67-.68-1.5-1.03-2.47-1.03Z"/>
      <path class="cls-3" d="M432.77,494.11h-.81l-2.51,3.94h-1.22l2.65-4.05c-.66-.08-1.19-.33-1.6-.75-.41-.42-.62-.94-.62-1.56,0-.78.24-1.38.71-1.8.47-.43,1.09-.64,1.86-.64h2.68v8.8h-1.13v-3.94ZM432.77,490.23h-.74c-.72,0-1.21.05-1.46.14-.25.09-.44.25-.59.47-.15.22-.22.52-.22.9s.09.66.28.89c.19.23.4.38.63.43.23.05.68.08,1.35.08h.74v-2.92Z"/>
      <path class="cls-3" d="M445.17,489.02c1.36,0,2.48.49,3.37,1.47.81.89,1.21,1.95,1.21,3.18s-.43,2.3-1.28,3.22-1.96,1.38-3.3,1.38-2.45-.46-3.31-1.38c-.86-.92-1.28-1.99-1.28-3.22s.4-2.27,1.22-3.17c.89-.99,2.02-1.48,3.38-1.48ZM445.17,490.13c-.94,0-1.75.35-2.43,1.04s-1.01,1.54-1.01,2.52c0,.64.15,1.23.46,1.78.31.55.72.97,1.25,1.27.52.3,1.1.45,1.73.45s1.2-.15,1.73-.45c.52-.3.94-.72,1.25-1.27.31-.55.46-1.14.46-1.78,0-.99-.34-1.83-1.02-2.52-.68-.7-1.49-1.04-2.42-1.04Z"/>
      <path class="cls-3" d="M451.92,497.08l3.39-7.83h.59l3.38,7.83h1.06v2.09h-1.09v-1.12h-7.28v1.17h-1.11v-2.13h1.07ZM455.59,491l-2.57,6.09h5.04l-2.47-6.09Z"/>
      <path class="cls-3" d="M469.27,495.13l.95.5c-.31.61-.67,1.11-1.08,1.49-.41.38-.87.66-1.38.86s-1.09.3-1.74.3c-1.43,0-2.56-.47-3.37-1.41s-1.21-2-1.21-3.19c0-1.12.34-2.11,1.03-2.98.87-1.11,2.03-1.67,3.49-1.67s2.7.57,3.59,1.71c.64.8.96,1.81.97,3.01h-7.91c.02,1.02.35,1.86.98,2.51.63.65,1.41.98,2.34.98.45,0,.88-.08,1.31-.23.42-.16.78-.36,1.08-.62.3-.26.62-.67.96-1.25ZM469.27,492.76c-.15-.6-.37-1.09-.66-1.45-.29-.36-.67-.65-1.15-.87-.47-.22-.97-.33-1.5-.33-.86,0-1.61.28-2.23.83-.45.4-.8,1.01-1.03,1.82h6.56Z"/>
      <path class="cls-3" d="M477.14,489.25h1.15v3.89l4.21-3.89h1.38l-4.16,3.92,4.47,4.87h-1.45l-3.81-4.25-.65.54v3.71h-1.15v-3.71l-.63-.54-3.78,4.25h-1.46l4.42-4.88-4.08-3.91h1.38l4.16,3.88v-3.88Z"/>
      <path class="cls-3" d="M485.43,497.08l3.39-7.83h.59l3.38,7.83h1.06v2.09h-1.09v-1.12h-7.28v1.17h-1.11v-2.13h1.07ZM489.1,491l-2.57,6.09h5.04l-2.47-6.09Z"/>
      <path class="cls-3" d="M504.14,489.25v8.8h-1.12v-1.51c-.47.58-1.01,1.01-1.6,1.3-.59.29-1.24.44-1.94.44-1.25,0-2.31-.45-3.19-1.35-.88-.9-1.32-2-1.32-3.29s.44-2.35,1.33-3.25c.89-.9,1.96-1.35,3.21-1.35.72,0,1.38.15,1.96.46s1.1.77,1.54,1.38v-1.62h1.12ZM499.62,490.11c-.63,0-1.21.16-1.74.46-.53.31-.96.74-1.27,1.3s-.47,1.15-.47,1.78.16,1.21.48,1.78.74,1.01,1.28,1.32,1.11.47,1.72.47,1.21-.16,1.76-.47c.55-.31.98-.73,1.28-1.27s.45-1.13.45-1.8c0-1.02-.33-1.87-1.01-2.55-.67-.68-1.5-1.03-2.47-1.03Z"/>
    </g>
  </g>
  <g>
    <path class="cls-9" d="M343.1,324.58s0,.01,0,.03c-.22,1.02-.47,2.13-.73,3.35.37-2.05.7-3.31.73-3.38Z"/>
    <g class="cls-12">
      <rect class="cls-3" x="345.03" y="97.85" width="139.43" height="255.54"/>
      <rect class="cls-4" x="344.38" y="96.84" width="140.5" height="259.47"/>
      <g>
        <g>
          <path class="cls-7" d="M438.24,130.41l3.63-16.45,2.84-12.88s-13.68,2.86-31.07,24.68h0s24.6,4.66,24.6,4.66Z"/>
          <path class="cls-5" d="M407.51,287.76s.04-.08.07-.13c-.02.09-.03.13-.03.14,0,0-.01,0-.04-.01Z"/>
          <path class="cls-1" d="M485.27,289.27s18.16-36.99-33.82-96.69c0,0-.58-.66-.58-.67,0,0,0,0,0,0,3.08,2.05,10.26,4.1,10.26,4.1,0,0-11.21-13.11-13.9-21.48-.38-1.2-2.72-9.34-.33-16.32,2.58-7.54,21.43-42.11,21.43-42.11l-.49.04c-10.65.94-20.79,4.84-29.5,11.05-.86.61-1.47.94-1.68.86-5.54-2.34-24.19-9.26-40.3-4.3-7.61,2.35-12.56,9.35-18.26,9.18-7.37-.23-15.52-1.56-16.79-.14-.02.02-.04.04-.04.06,1.95-.41,9.05,7.4,11.96,9.7,5.45,4.29,16.71,6.51,17.79,6.8,34.71,9.36,34.71,47.36,34.71,47.36,0,0-3.45-8.64-12.08-10.36,22.45,38,9.15,66.77,9.15,66.77l-5.7-14.96s.75,8.25-4.2,16.87c-1.04.59-2.05,1.42-3.05,2.5-4.5,4.94-9.41,8.6-14.59,11.19-12.03,6-22.83,1.92-24.18,5.19-2.84,6.87,40.72,49.98,83.89,36.41,4.88-1.53,22.46-5.93,30.31-21.07Z"/>
          <path class="cls-5" d="M407.58,287.62c-.03.05-.05.09-.07.13.03.01.04.01.04.01,0-.01.01-.05.03-.14Z"/>
          <path class="cls-1" d="M371.04,141.74c13.83,16.85,26.81,16.31,34.77,24.53,16.34,16.9-20.22,68.73-29.52,107.12,14.06.18,22.47-3.65,33.56-15.85.99-1.09,2.01-1.91,3.05-2.5,4.95-8.63,4.2-16.87,4.2-16.87l5.7,14.96s13.3-28.78-9.15-66.77c8.64,1.72,12.08,10.36,12.08,10.36,0,0,0-38-34.71-47.36-1.09-.29-12.35-2.51-17.79-6.8-2.91-2.3-10.01-10.11-11.96-9.7-.97,1.37,5.51,3.71,9.76,8.88Z"/>
          <path class="cls-6" d="M442.7,128.96c8.37-7.05,18.94-9.48,21.98-10.32.25-.07.45.19.33.42-1.99,3.52-12.21,21.63-15.24,28.4-.32.72-1.2.69-1.71.09-3.7-4.33-10.08-14.61-5.36-18.59Z"/>
          <path class="cls-5" d="M407.58,287.62c-.03.05-.05.09-.07.13.03.01.04.01.04.01,0-.01.01-.05.03-.14Z"/>
          <path class="cls-6" d="M371.23,273.92c48.86-1.07,45.86-35.75,45.86-35.75h0c4.01,4.31,5.7,14.96,5.7,14.96,0,0,13.3-28.78-9.15-66.77,8.64,1.72,12.08,10.36,12.08,10.36,0,0,0-38-34.71-47.36-1.09-.29-12.35-2.51-17.79-6.8-2.91-2.3-10.01-10.11-11.96-9.7-.21.04-.35.17-.43.4-9.07,25.58,29.24,17.03,33.62,51.58,4.56,35.99-17.22,79.12-24.46,88.67l-5.33.04c2.16.28,4.33.41,6.51.38.03,0,.05,0,.06,0Z"/>
          <path class="cls-5" d="M407.55,287.77s.01-.05.03-.14c-.03.05-.05.09-.07.13.03.01.04.01.04.01Z"/>
          <path class="cls-1" d="M372.62,133.13c-.37-.76-10.08-1.86-11.27-.69-1.03,1.02-2.08,6.18-1.77,6.3,2.31.83,5.97-1.75,6.5-3.29.39-1.14,7.15-1.08,6.55-2.32Z"/>
          <ellipse class="cls-1" cx="405.83" cy="202.57" rx="4.28" ry=".54" transform="translate(199.9 606.71) rotate(-89.53)"/>
          <ellipse class="cls-1" cx="398.2" cy="218.57" rx="4.28" ry=".54" transform="translate(176.34 614.95) rotate(-89.53)"/>
          <ellipse class="cls-1" cx="409.02" cy="230.44" rx="4.28" ry=".54" transform="translate(175.21 637.54) rotate(-89.53)"/>
          <path class="cls-8" d="M407.62,136.58c-.01,1.54,8.87,4.39,8.88,2.86.01-1.54-4.54-5.6-6.08-5.62s-2.79,1.22-2.81,2.76Z"/>
        </g>
        <path class="cls-7" d="M394.63,347.77c-3.09-.46-12.82-24.97-20.29-41.03-.36,5.88-3.74,13.92-17.65,19.26,0,0-.01,0-.03.01-.81.3-1.64.56-2.49.78-.52.13-1.57.29-2.1.23,0,0-13.65-2.16-15.13-2.41-33.52-5.77-47.3,10.44-47.3,10.44,0,0,12-36.37,36.54-56.65,0,0,.02-.02.02-.02,1.71-1.58,3.71-3.11,5.93-4.55,1.56-1.14,3.75-2.43,6.41-3.64,8.75-4.01,18.5-5.26,28.02-3.86,9.42,1.38,15.72,3.84,23.1,7.92.16.05.31.12.46.21,104.61,60.2,99.9.47,97.13-14.96,5.39,25.23,59.03,110.74-92.62,88.28Z"/>
      </g>
    </g>
    <rect class="cls-11" x="344.89" y="97.71" width="139.39" height="258.67"/>
    <g>
      <g>
        <path class="cls-9" d="M391.37,198.91l-3.63-16.45-2.84-12.88s13.68,2.86,31.07,24.68h0s-24.6,4.66-24.6,4.66Z"/>
        <path class="cls-5" d="M422.06,356.27s-.01-.05-.03-.14c.03.05.05.09.07.13-.03.01-.04.01-.04.01Z"/>
        <path class="cls-10" d="M344.34,357.77s-18.16-36.99,33.82-96.69c0,0,.58-.66.58-.67,0,0,0,0,0,0-3.08,2.05-10.26,4.1-10.26,4.1,0,0,11.21-13.11,13.9-21.48.38-1.2,2.72-9.34.33-16.32-2.58-7.54-21.43-42.11-21.43-42.11l.49.04c10.65.94,20.79,4.84,29.5,11.05.86.61,1.47.94,1.68.86,5.54-2.34,24.19-9.26,40.3-4.3,7.61,2.35,12.56,9.35,18.26,9.18,7.37-.23,15.52-1.56,16.79-.14.02.02.04.04.04.06-1.95-.41-9.05,7.4-11.96,9.7-5.45,4.29-16.71,6.51-17.79,6.8-34.71,9.36-34.71,47.36-34.71,47.36,0,0,3.45-8.64,12.08-10.36-22.45,38-9.15,66.77-9.15,66.77l5.7-14.96s-.75,8.25,4.2,16.87c1.04.59,2.05,1.42,3.05,2.5,4.5,4.94,9.41,8.6,14.59,11.19,12.03,6,22.83,1.92,24.18,5.19,2.84,6.87-40.72,49.98-83.89,36.41-4.88-1.53-22.46-5.93-30.31-21.07Z"/>
        <path class="cls-5" d="M422.03,356.13c.03.05.05.09.07.13-.03.01-.04.01-.04.01,0-.01-.01-.05-.03-.14Z"/>
        <path class="cls-5" d="M458.57,210.24c-13.83,16.85-26.81,16.31-34.77,24.53-16.34,16.9,25.43,69.26,34.74,107.65-14.06.18-27.68-4.18-38.78-16.38-.99-1.09-2.01-1.91-3.05-2.5-4.95-8.63-4.2-16.87-4.2-16.87l-5.7,14.96s-13.3-28.78,9.15-66.77c-8.64,1.72-12.08,10.36-12.08,10.36,0,0,0-38,34.71-47.36,1.09-.29,12.35-2.51,17.79-6.8,2.91-2.3,10.01-10.11,11.96-9.7.97,1.37-5.51,3.71-9.76,8.88Z"/>
        <path class="cls-2" d="M386.9,197.47c-8.37-7.05-18.94-9.48-21.98-10.32-.25-.07-.45.19-.33.42,1.99,3.52,12.21,21.63,15.24,28.4.32.72,1.2.69,1.71.09,3.7-4.33,10.08-14.61,5.36-18.59Z"/>
        <path class="cls-5" d="M422.03,356.13c.03.05.05.09.07.13-.03.01-.04.01-.04.01,0-.01-.01-.05-.03-.14Z"/>
        <path class="cls-2" d="M458.38,342.43c-48.86-1.07-45.86-35.75-45.86-35.75h0c-4.01,4.31-5.7,14.96-5.7,14.96,0,0-13.3-28.78,9.15-66.77-8.64,1.72-12.08,10.36-12.08,10.36,0,0,0-38,34.71-47.36,1.09-.29,12.35-2.51,17.79-6.8,2.91-2.3,10.01-10.11,11.96-9.7.21.04.35.17.43.4,9.07,25.58-29.24,17.03-33.62,51.58-4.56,35.99,24.06,78.96,31.31,88.51l-1.51.2c-2.16.28-4.33.41-6.51.38-.03,0-.05,0-.06,0Z"/>
        <path class="cls-5" d="M422.06,356.27s-.01-.05-.03-.14c.03.05.05.09.07.13-.03.01-.04.01-.04.01Z"/>
        <path class="cls-10" d="M456.99,201.63c.37-.76,10.08-1.86,11.27-.69,1.03,1.02,2.08,6.18,1.77,6.3-2.31.83-5.97-1.75-6.5-3.29-.39-1.14-7.15-1.08-6.55-2.32Z"/>
        <ellipse class="cls-5" cx="423.78" cy="271.08" rx=".54" ry="4.28" transform="translate(-2.23 3.51) rotate(-.47)"/>
        <ellipse class="cls-5" cx="431.41" cy="287.08" rx=".54" ry="4.28" transform="translate(-2.36 3.58) rotate(-.47)"/>
        <ellipse class="cls-5" cx="420.59" cy="298.94" rx=".54" ry="4.28" transform="translate(-2.46 3.49) rotate(-.47)"/>
        <path class="cls-8" d="M421.99,205.08c.01,1.54-8.87,4.39-8.88,2.86-.01-1.54,4.54-5.6,6.08-5.62s2.79,1.22,2.81,2.76Z"/>
      </g>
      <g>
        <path class="cls-9" d="M463.47,361.55c-4.87.84,19.62,33.15,15.05,33.83-151.65,22.46-141.54-42.16-136.16-67.38-2.76,15.43-7.47,75.15,97.13,14.96.15-.09.3-.16.46-.21,9.92-5.48,20.93-9.5,28.73-9.5,4.84,0,9.38.57,13.3,1.76"/>
        <path class="cls-2" d="M539.97,403.55s-13.78-16.21-47.3-10.44c-1.48.25-15.13,2.41-15.13,2.41-.54.06-1.59-.1-2.1-.23-.84-.21-1.67-.47-2.49-.78-.02,0-.03-.01-.03-.01-24.22-9.31-16.52-26.78-16.52-26.78-1.47.9-2.83,2.65-3.83,4.18-1,1.53-1.63,2.83-1.63,2.83,0,0-1.42-16.94,16.7-32.13-4.63-.68-7.92,3.07-7.92,3.07.12-.74,1.89-9.9,9.81-11.75,8.83-2.07,22.94,4.73,27.95,8.4,2.22,1.43,4.22,2.96,5.93,4.55,0,0,.01.01.02.02,24.53,20.28,36.54,56.65,36.54,56.65Z"/>
      </g>
    </g>
  </g>
</svg>