<?xml version="1.0" encoding="UTF-8"?>
<svg id="Layer_1" data-name="Layer 1" xmlns="http://www.w3.org/2000/svg" xmlns:xlink="http://www.w3.org/1999/xlink" viewBox="0 0 841.89 595.28">
  <defs>
    <style>
      .cls-1 {
        fill: #fffef6;
        opacity: .69;
      }

      .cls-1, .cls-2, .cls-3, .cls-4, .cls-5, .cls-6, .cls-7, .cls-8, .cls-9, .cls-10 {
        stroke-width: 0px;
      }

      .cls-2 {
        fill: #e56125;
      }

      .cls-3 {
        fill: #fde1c8;
      }

      .cls-4 {
        fill: #f37221;
      }

      .cls-5, .cls-11 {
        fill: none;
      }

      .cls-6 {
        fill: #3c3c3b;
      }

      .cls-7 {
        fill: #f47621;
      }

      .cls-8 {
        fill: #484848;
      }

      .cls-9 {
        fill: #f7f8f8;
      }

      .cls-10 {
        fill: #dddad4;
      }

      .cls-12 {
        clip-path: url(#clippath);
      }

      .cls-11 {
        stroke: #3c3c3b;
        stroke-miterlimit: 10;
      }
    </style>
    <clipPath id="clippath">
      <rect class="cls-5" x="325.88" y="144.08" width="139.49" height="259.42"/>
    </clipPath>
  </defs>
  <path class="cls-2" d="M324.24,372.32s0,.01,0,.03c-.22,1.01-.47,2.13-.73,3.34.37-2.05.7-3.3.73-3.38Z"/>
  <g class="cls-12">
    <rect class="cls-9" x="326.03" y="145.62" width="138.99" height="258.69"/>
    <rect class="cls-5" x="325.52" y="144.86" width="140.33" height="259.15"/>
    <g>
      <g>
        <path class="cls-6" d="M419.26,178.38l3.63-16.43,2.84-12.86s-13.66,2.85-31.04,24.65h0s24.57,4.65,24.57,4.65Z"/>
        <path class="cls-7" d="M388.57,335.54s.04-.08.07-.13c-.02.09-.03.13-.03.14,0,0-.01,0-.04-.01Z"/>
        <path class="cls-8" d="M466.23,337.05s18.14-36.94-33.78-96.57c0,0-.58-.66-.57-.67,0,0,0,0,0,0,3.07,2.05,10.24,4.1,10.24,4.1,0,0-11.2-13.09-13.88-21.45-.38-1.2-2.71-9.33-.33-16.3,2.58-7.53,21.41-42.06,21.41-42.06l-.49.04c-10.63.94-20.76,4.83-29.46,11.03-.86.6-1.46.94-1.68.86-5.53-2.34-24.16-9.25-40.26-4.29-7.6,2.35-12.55,9.34-18.23,9.17-7.37-.23-15.5-1.56-16.77-.14-.02.02-.04.04-.04.06,1.95-.41,9.03,7.4,11.94,9.69,5.44,4.28,16.69,6.5,17.77,6.79,34.66,9.35,34.66,47.3,34.66,47.3,0,0-3.44-8.62-12.07-10.35,22.42,37.95,9.14,66.69,9.14,66.69l-5.69-14.94s.75,8.24-4.2,16.85c-1.03.59-2.05,1.41-3.04,2.5-4.49,4.93-9.39,8.59-14.57,11.17-12.01,6-22.81,1.92-24.15,5.19-2.83,6.86,40.67,49.92,83.78,36.37,4.87-1.53,22.43-5.93,30.27-21.04Z"/>
        <path class="cls-7" d="M388.64,335.41c-.03.05-.05.09-.07.13.03.01.04.01.04.01,0-.01.01-.05.03-.14Z"/>
        <path class="cls-8" d="M352.14,189.7c13.82,16.83,26.78,16.29,34.72,24.5,16.32,16.88-20.2,68.64-29.49,106.99,14.04.18,22.44-3.65,33.52-15.83.99-1.09,2.01-1.91,3.04-2.5,4.95-8.61,4.2-16.85,4.2-16.85l5.69,14.94s13.29-28.74-9.14-66.69c8.62,1.72,12.07,10.35,12.07,10.35,0,0,0-37.95-34.66-47.3-1.09-.29-12.33-2.51-17.77-6.79-2.91-2.29-10-10.1-11.94-9.69-.97,1.37,5.5,3.71,9.75,8.87Z"/>
        <path class="cls-10" d="M423.72,176.94c8.36-7.05,18.91-9.47,21.95-10.31.25-.07.45.19.33.42-1.99,3.51-12.19,21.6-15.22,28.37-.32.72-1.2.69-1.71.09-3.7-4.32-10.07-14.6-5.36-18.57Z"/>
        <path class="cls-7" d="M388.64,335.41c-.03.05-.05.09-.07.13.03.01.04.01.04.01,0-.01.01-.05.03-.14Z"/>
        <path class="cls-10" d="M352.34,321.72c48.8-1.07,45.81-35.7,45.81-35.7h0c4.01,4.31,5.69,14.94,5.69,14.94,0,0,13.29-28.74-9.14-66.69,8.62,1.72,12.07,10.35,12.07,10.35,0,0,0-37.95-34.66-47.3-1.09-.29-12.33-2.51-17.77-6.79-2.91-2.29-10-10.1-11.94-9.69-.21.04-.35.17-.43.4-9.06,25.55,29.2,17.01,33.58,51.51,4.55,35.95-17.19,79.02-24.43,88.56l-5.32.04c2.15.28,4.33.41,6.5.38.03,0,.05,0,.05,0Z"/>
        <path class="cls-7" d="M388.61,335.55s.01-.05.03-.14c-.03.05-.05.09-.07.13.03.01.04.01.04.01Z"/>
        <path class="cls-8" d="M353.72,181.1c-.37-.76-10.06-1.86-11.26-.69-1.03,1.02-2.08,6.18-1.77,6.29,2.31.83,5.97-1.75,6.49-3.28.39-1.14,7.14-1.08,6.54-2.32Z"/>
        <ellipse class="cls-8" cx="386.89" cy="250.46" rx="4.28" ry=".53" transform="translate(133.23 635.27) rotate(-89.53)"/>
        <ellipse class="cls-8" cx="379.27" cy="266.44" rx="4.28" ry=".53" transform="translate(109.7 643.5) rotate(-89.53)"/>
        <ellipse class="cls-8" cx="390.08" cy="278.29" rx="4.28" ry=".53" transform="translate(108.57 666.06) rotate(-89.53)"/>
        <path class="cls-1" d="M388.68,184.55c-.01,1.53,8.86,4.39,8.87,2.85s-4.53-5.6-6.07-5.61-2.79,1.22-2.8,2.76Z"/>
      </g>
      <path class="cls-6" d="M375.71,395.48c-3.09-.46-12.8-24.94-20.26-40.98-.36,5.87-3.74,13.9-17.63,19.24,0,0-.01,0-.03.01-.81.3-1.64.56-2.48.78-.52.13-1.57.29-2.1.23,0,0-13.63-2.16-15.11-2.41-33.48-5.76-47.24,10.43-47.24,10.43,0,0,11.99-36.32,36.49-56.58,0,0,.02-.02.02-.02,1.7-1.58,3.7-3.11,5.92-4.54,1.56-1.14,3.75-2.42,6.4-3.64,8.74-4,18.48-5.26,27.98-3.86,9.4,1.38,15.7,3.84,23.07,7.91.16.05.31.12.46.21,104.48,60.12,99.77.47,97.01-14.94,5.38,25.2,58.96,110.6-92.51,88.17Z"/>
    </g>
  </g>
  <rect class="cls-11" x="326.03" y="145.73" width="139.22" height="258.35"/>
  <g>
    <g>
      <path class="cls-2" d="M372.45,246.81l-3.63-16.43-2.84-12.86s13.66,2.85,31.04,24.65h0s-24.57,4.65-24.57,4.65Z"/>
      <path class="cls-7" d="M403.1,403.98s-.01-.05-.03-.14c.03.05.05.09.07.13-.03.01-.04.01-.04.01Z"/>
      <path class="cls-4" d="M325.48,405.47s-18.14-36.94,33.78-96.57c0,0,.58-.66.57-.67,0,0,0,0,0,0-3.07,2.05-10.24,4.1-10.24,4.1,0,0,11.2-13.09,13.88-21.45.38-1.2,2.71-9.33.33-16.3-2.58-7.53-21.41-42.06-21.41-42.06l.49.04c10.63.94,20.76,4.83,29.46,11.03.86.6,1.46.94,1.68.86,5.53-2.34,24.16-9.25,40.26-4.29,7.6,2.35,12.55,9.34,18.23,9.17,7.37-.23,15.5-1.56,16.77-.14.02.02.04.04.04.06-1.95-.41-9.03,7.4-11.94,9.69-5.44,4.28-16.69,6.5-17.77,6.79-34.66,9.35-34.66,47.3-34.66,47.3,0,0,3.44-8.62,12.07-10.35-22.42,37.95-9.14,66.69-9.14,66.69l5.69-14.94s-.75,8.24,4.2,16.85c1.03.59,2.05,1.41,3.04,2.5,4.49,4.93,9.39,8.59,14.57,11.17,12.01,6,22.81,1.92,24.15,5.19,2.83,6.86-40.67,49.92-83.78,36.37-4.87-1.53-22.43-5.93-30.27-21.04Z"/>
      <path class="cls-7" d="M403.07,403.83c.03.05.05.09.07.13-.03.01-.04.01-.04.01,0-.01-.01-.05-.03-.14Z"/>
      <path class="cls-7" d="M439.57,258.12c-13.82,16.83-26.78,16.29-34.72,24.5-16.32,16.88,25.4,69.17,34.69,107.52-14.04.18-27.65-4.18-38.73-16.36-.99-1.09-2.01-1.91-3.04-2.5-4.95-8.61-4.2-16.85-4.2-16.85l-5.69,14.94s-13.29-28.74,9.14-66.69c-8.62,1.72-12.07,10.35-12.07,10.35,0,0,0-37.95,34.66-47.3,1.09-.29,12.33-2.51,17.77-6.79,2.91-2.29,10-10.1,11.94-9.69.97,1.37-5.5,3.71-9.75,8.87Z"/>
      <path class="cls-3" d="M367.99,245.36c-8.36-7.05-18.91-9.47-21.95-10.31-.25-.07-.45.19-.33.42,1.99,3.51,12.19,21.6,15.22,28.37.32.72,1.2.69,1.71.09,3.7-4.32,10.07-14.6,5.36-18.57Z"/>
      <path class="cls-7" d="M403.07,403.83c.03.05.05.09.07.13-.03.01-.04.01-.04.01,0-.01-.01-.05-.03-.14Z"/>
      <path class="cls-3" d="M439.37,390.14c-48.8-1.07-45.81-35.7-45.81-35.7h0c-4.01,4.31-5.69,14.94-5.69,14.94,0,0-13.29-28.74,9.14-66.69-8.62,1.72-12.07,10.35-12.07,10.35,0,0,0-37.95,34.66-47.3,1.09-.29,12.33-2.51,17.77-6.79,2.91-2.29,10-10.1,11.94-9.69.21.04.35.17.43.4,9.06,25.55-29.2,17.01-33.58,51.51-4.55,35.95,24.03,78.86,31.27,88.4l-1.51.2c-2.15.28-4.33.41-6.5.38-.03,0-.05,0-.05,0Z"/>
      <path class="cls-7" d="M403.1,403.98s-.01-.05-.03-.14c.03.05.05.09.07.13-.03.01-.04.01-.04.01Z"/>
      <path class="cls-4" d="M437.99,249.53c.37-.76,10.06-1.86,11.26-.69,1.03,1.02,2.08,6.18,1.77,6.29-2.31.83-5.97-1.75-6.49-3.28-.39-1.14-7.14-1.08-6.54-2.32Z"/>
      <ellipse class="cls-7" cx="404.82" cy="318.89" rx=".53" ry="4.28" transform="translate(-2.62 3.36) rotate(-.47)"/>
      <ellipse class="cls-7" cx="412.44" cy="334.86" rx=".53" ry="4.28" transform="translate(-2.76 3.42) rotate(-.47)"/>
      <ellipse class="cls-7" cx="401.63" cy="346.72" rx=".53" ry="4.28" transform="translate(-2.85 3.33) rotate(-.47)"/>
      <path class="cls-1" d="M403.04,252.97c.01,1.53-8.86,4.39-8.87,2.85-.01-1.53,4.53-5.6,6.07-5.61s2.79,1.22,2.8,2.76Z"/>
    </g>
    <g>
      <path class="cls-2" d="M444.46,409.25c-4.86.84,19.59,33.11,15.03,33.79-151.46,22.43-141.37-42.1-135.99-67.3-2.76,15.41-7.47,75.06,97.01,14.94.15-.09.3-.16.46-.21,9.91-5.48,20.9-9.49,28.7-9.49,4.83,0,9.37.57,13.28,1.76"/>
      <path class="cls-3" d="M520.86,451.2s-13.76-16.19-47.24-10.43c-1.47.25-15.11,2.41-15.11,2.41-.53.06-1.58-.1-2.1-.23-.84-.21-1.67-.47-2.48-.78-.02,0-.03-.01-.03-.01-24.19-9.3-16.5-26.75-16.5-26.75-1.47.9-2.83,2.65-3.83,4.18-1,1.53-1.63,2.83-1.63,2.83,0,0-1.42-16.92,16.68-32.09-4.62-.68-7.91,3.07-7.91,3.07.12-.74,1.89-9.88,9.8-11.74,8.82-2.06,22.91,4.73,27.92,8.39,2.22,1.43,4.22,2.96,5.92,4.54,0,0,.01.01.02.02,24.5,20.26,36.49,56.58,36.49,56.58Z"/>
    </g>
  </g>
</svg>